<?xml version="1.0" encoding="utf-8"?>
<!-- Generator: Adobe Illustrator 23.0.5, SVG Export Plug-In . SVG Version: 6.00 Build 0)  -->
<svg version="1.1" id="Layer_2" xmlns="http://www.w3.org/2000/svg" xmlns:xlink="http://www.w3.org/1999/xlink" x="0px" y="0px"
	 viewBox="0 0 1080 1080" style="enable-background:new 0 0 1080 1080;" xml:space="preserve">
<style type="text/css">
	.st0{opacity:0.7;fill:#DD9F68;}
	.st1{fill:#70280B;}
</style>
<polygon class="st0" points="96.6,849 316.3,448.9 381.4,566.7 534.2,231 686.4,563.6 755.1,448.3 983.4,848.4 "/>
<g>
	<path class="st1" d="M170.6,650h-57.3l-10.6,26.3H63.6l59.8-135.4h37.7l60,135.4h-39.9L170.6,650z M159.4,621.7L142,578.4
		l-17.4,43.3H159.4z"/>
	<path class="st1" d="M322.2,576.3c7.8,4.4,14,10.7,18.6,18.9c4.6,8.2,6.9,17.7,6.9,28.5s-2.3,20.4-6.9,28.6
		c-4.6,8.3-10.8,14.6-18.6,19.1c-7.8,4.5-16.5,6.7-26,6.7c-13.8,0-24.1-4.1-31-12.2v10.4h-35V532.7H267v47.8
		c7.1-7.2,16.8-10.8,29.2-10.8C305.7,569.7,314.4,571.9,322.2,576.3z M304.3,642.2c4.1-4.5,6.2-10.6,6.2-18.5
		c0-7.7-2.1-13.8-6.2-18.2c-4.1-4.4-9.4-6.6-15.9-6.6c-6.5,0-11.7,2.2-15.9,6.6c-4.1,4.4-6.2,10.4-6.2,18.2c0,7.9,2.1,14,6.2,18.5
		c4.1,4.5,9.4,6.7,15.9,6.7C294.9,648.8,300.2,646.6,304.3,642.2z"/>
	<path class="st1" d="M386.9,671.1c-9-4.6-16.1-11.1-21.2-19.3c-5.1-8.3-7.6-17.6-7.6-28.1c0-10.3,2.5-19.6,7.6-27.9
		c5.1-8.3,12.1-14.7,21.1-19.3c9-4.6,19.1-6.9,30.5-6.9c11.4,0,21.5,2.3,30.6,6.9c9,4.6,16.1,11,21.1,19.2c5,8.2,7.5,17.5,7.5,28
		s-2.5,19.8-7.5,28.1c-5,8.3-12.1,14.7-21.1,19.3c-9,4.6-19.2,7-30.6,7C406.1,678,396,675.7,386.9,671.1z M433.2,642.2
		c4.1-4.5,6.2-10.6,6.2-18.5c0-7.7-2.1-13.8-6.2-18.2c-4.1-4.4-9.4-6.6-15.9-6.6c-6.5,0-11.7,2.2-15.9,6.6
		c-4.1,4.4-6.2,10.4-6.2,18.2c0,7.9,2.1,14,6.2,18.5c4.1,4.5,9.4,6.7,15.9,6.7C423.8,648.8,429.1,646.6,433.2,642.2z"/>
	<path class="st1" d="M603.9,571.4v104.9h-35v-11.2c-3.9,4.3-8.5,7.5-13.9,9.7c-5.4,2.2-11.2,3.3-17.2,3.3c-13.5,0-24.4-4-32.4-12
		c-8.1-8-12.1-20-12.1-36v-58.6h36.8v52.6c0,7.9,1.5,13.6,4.5,17.2c3,3.6,7.3,5.4,13,5.4c5.8,0,10.5-2,14.2-6.1
		c3.7-4.1,5.5-10.3,5.5-18.7v-50.5H603.9z"/>
	<path class="st1" d="M699.8,672c-3.1,1.9-6.9,3.4-11.3,4.5c-4.5,1-9.2,1.5-14.2,1.5c-13.7,0-24.2-3.4-31.5-10.1
		c-7.4-6.7-11-16.7-11-30v-35.2h-15.3v-27.5h15.3V548h36.8v27.3h24v27.5h-24v34.8c0,3.7,1,6.7,3,8.8c2,2.1,4.7,3.2,8,3.2
		c4.3,0,8-1.1,11.2-3.3L699.8,672z"/>
	<path class="st1" d="M787.6,662.6c-11.2-11-16.7-26.5-16.7-46.6v-75.1h38.3v73.9c0,21.7,8.6,32.5,25.7,32.5
		c17,0,25.5-10.8,25.5-32.5v-73.9h37.7v75.1c0,20.1-5.6,35.7-16.7,46.6c-11.2,11-26.8,16.4-46.9,16.4S798.7,673.5,787.6,662.6z"/>
	<path class="st1" d="M934.5,675c-8.5-2-15.4-4.6-20.5-7.8l11-25.2c4.8,3,10.4,5.3,17,7.1c6.6,1.7,13.1,2.6,19.5,2.6
		c5.9,0,10.2-0.6,12.7-1.8c2.5-1.2,3.8-3,3.8-5.3c0-2.3-1.5-4-4.5-4.9c-3-1-7.8-1.9-14.4-2.8c-8.4-1-15.5-2.4-21.4-4.1
		c-5.9-1.7-10.9-4.8-15.2-9.3c-4.3-4.5-6.4-10.8-6.4-19c0-6.7,2-12.7,6-17.9c4-5.2,9.8-9.4,17.5-12.4c7.7-3,16.9-4.5,27.6-4.5
		c7.6,0,15.2,0.8,22.6,2.3c7.5,1.5,13.7,3.7,18.8,6.6l-11,25c-9.3-5.2-19.4-7.7-30.2-7.7c-5.8,0-10.1,0.7-12.8,2s-4.1,3.1-4.1,5.3
		c0,2.5,1.5,4.2,4.5,5.1c3,1,7.9,2,14.7,3c8.6,1.3,15.8,2.8,21.5,4.5c5.7,1.7,10.6,4.7,14.8,9.2c4.2,4.5,6.3,10.7,6.3,18.7
		c0,6.6-2,12.5-6,17.7c-4,5.2-9.9,9.3-17.7,12.3c-7.8,3-17.2,4.5-28.2,4.5C951.7,678,943.1,677,934.5,675z"/>
</g>
</svg>
