<?xml version="1.0" encoding="utf-8"?>
<!-- Generator: Adobe Illustrator 23.0.5, SVG Export Plug-In . SVG Version: 6.00 Build 0)  -->
<svg version="1.1" xmlns="http://www.w3.org/2000/svg" xmlns:xlink="http://www.w3.org/1999/xlink" x="0px" y="0px"
	 viewBox="0 0 1080 1080" style="enable-background:new 0 0 1080 1080;" xml:space="preserve">
<style type="text/css">
	.st0{opacity:0.75;fill:#9EADCA;}
	.st1{fill:#FFFFFF;}
</style>
<g id="Layer_3">
</g>
<g id="Layer_2">
	<polygon class="st0" points="96.6,849 316.3,448.9 381.4,566.7 534.2,231 686.4,563.6 755.1,448.3 983.4,848.4 	"/>
	<g>
		<path class="st1" d="M83.9,652.4c-5.7-1.5-10.3-3.5-13.9-6l7-15.6c3.4,2.2,7.2,4,11.7,5.4c4.4,1.4,8.8,2,13.1,2
			c8.1,0,12.2-2,12.2-6.1c0-2.1-1.2-3.7-3.5-4.8c-2.3-1-6-2.1-11.2-3.3c-5.6-1.2-10.3-2.5-14.1-3.9c-3.8-1.4-7-3.6-9.7-6.7
			c-2.7-3.1-4.1-7.2-4.1-12.4c0-4.6,1.2-8.7,3.7-12.4c2.5-3.7,6.2-6.6,11.2-8.7c5-2.1,11-3.2,18.2-3.2c4.9,0,9.8,0.6,14.6,1.7
			c4.8,1.1,9,2.7,12.6,4.9l-6.5,15.7c-7.1-3.9-14.1-5.8-20.8-5.8c-4.2,0-7.3,0.6-9.2,1.9c-1.9,1.2-2.9,2.9-2.9,4.9
			c0,2,1.1,3.5,3.4,4.5c2.3,1,6,2,11,3.1c5.7,1.2,10.4,2.5,14.2,3.9c3.7,1.4,7,3.6,9.7,6.6c2.7,3,4.1,7.2,4.1,12.4
			c0,4.5-1.2,8.6-3.7,12.2c-2.5,3.6-6.2,6.5-11.2,8.7c-5,2.2-11.1,3.3-18.2,3.3C95.5,654.6,89.6,653.9,83.9,652.4z"/>
		<path class="st1" d="M202.5,629.3h-42.2c0.9,3,2.5,5.3,5,6.9c2.5,1.6,5.5,2.4,9.3,2.4c2.8,0,5.2-0.4,7.2-1.2
			c2-0.8,4.1-2.1,6.2-3.9l10.7,11.1c-5.6,6.3-13.9,9.4-24.7,9.4c-6.8,0-12.7-1.3-17.9-3.9c-5.1-2.6-9.1-6.1-11.9-10.7
			c-2.8-4.6-4.2-9.7-4.2-15.5c0-5.7,1.4-10.8,4.1-15.4c2.7-4.5,6.5-8.1,11.4-10.6c4.8-2.6,10.3-3.9,16.4-3.9c5.8,0,11,1.2,15.7,3.6
			c4.7,2.4,8.4,5.8,11.2,10.4c2.7,4.5,4.1,9.9,4.1,16.1C202.8,624.4,202.7,626.1,202.5,629.3z M164,611.3c-2.1,1.8-3.4,4.2-4,7.3
			h23.8c-0.6-3.1-1.9-5.5-4-7.3c-2.1-1.8-4.7-2.7-7.9-2.7C168.7,608.6,166.1,609.5,164,611.3z"/>
		<path class="st1" d="M239.7,596.2c3.3-1.3,7.1-2,11.4-2v18.3c-1.9-0.2-3.4-0.3-4.6-0.3c-4.4,0-7.8,1.2-10.2,3.5
			c-2.5,2.4-3.7,6-3.7,10.8v26.6h-20.3v-58h19.4v7C233.6,599.5,236.3,597.5,239.7,596.2z"/>
		<path class="st1" d="M322.3,595.1l-24,58h-21l-23.9-58h20.9l13.9,35.4l14.7-35.4H322.3z"/>
		<path class="st1" d="M328.7,585.6c-2.3-2.1-3.4-4.6-3.4-7.7c0-3.1,1.1-5.6,3.4-7.7c2.3-2.1,5.3-3.1,9-3.1c3.7,0,6.7,1,9,2.9
			c2.3,2,3.4,4.5,3.4,7.5c0,3.2-1.1,5.9-3.4,8c-2.3,2.1-5.3,3.2-9,3.2C334,588.7,331,587.7,328.7,585.6z M327.6,595.1h20.3v58h-20.3
			V595.1z"/>
		<path class="st1" d="M373.5,650.2c-5.1-2.6-9-6.1-11.8-10.7c-2.8-4.6-4.2-9.7-4.2-15.5c0-5.8,1.4-10.9,4.2-15.5
			c2.8-4.5,6.8-8.1,11.8-10.6c5.1-2.5,10.8-3.8,17.2-3.8c6.6,0,12.2,1.4,17,4.2c4.8,2.8,8.2,6.7,10.2,11.7l-15.7,8
			c-2.6-5.2-6.5-7.8-11.6-7.8c-3.6,0-6.7,1.2-9,3.6c-2.4,2.4-3.6,5.8-3.6,10.1c0,4.4,1.2,7.8,3.6,10.2c2.4,2.5,5.4,3.7,9,3.7
			c5.1,0,8.9-2.6,11.6-7.8l15.7,8c-2,5-5.4,8.9-10.2,11.7c-4.8,2.8-10.5,4.2-17,4.2C384.3,654.1,378.5,652.8,373.5,650.2z"/>
		<path class="st1" d="M483.9,629.3h-42.2c0.9,3,2.5,5.3,5,6.9c2.5,1.6,5.5,2.4,9.3,2.4c2.8,0,5.2-0.4,7.2-1.2
			c2-0.8,4.1-2.1,6.2-3.9l10.7,11.1c-5.6,6.3-13.9,9.4-24.7,9.4c-6.8,0-12.7-1.3-17.9-3.9c-5.1-2.6-9.1-6.1-11.9-10.7
			c-2.8-4.6-4.2-9.7-4.2-15.5c0-5.7,1.4-10.8,4.1-15.4c2.7-4.5,6.5-8.1,11.4-10.6c4.8-2.6,10.3-3.9,16.4-3.9c5.8,0,11,1.2,15.7,3.6
			c4.7,2.4,8.4,5.8,11.2,10.4c2.7,4.5,4.1,9.9,4.1,16.1C484.2,624.4,484.1,626.1,483.9,629.3z M445.4,611.3c-2.1,1.8-3.4,4.2-4,7.3
			h23.8c-0.6-3.1-1.9-5.5-4-7.3c-2.1-1.8-4.7-2.7-7.9-2.7C450.1,608.6,447.5,609.5,445.4,611.3z"/>
		<path class="st1" d="M500.4,652.4c-4.7-1.1-8.5-2.5-11.3-4.3l6.1-13.9c2.6,1.6,5.8,2.9,9.4,3.9c3.6,1,7.2,1.4,10.8,1.4
			c3.3,0,5.6-0.3,7-1c1.4-0.7,2.1-1.7,2.1-2.9s-0.8-2.2-2.5-2.7c-1.7-0.5-4.3-1.1-8-1.6c-4.6-0.6-8.6-1.3-11.8-2.2
			c-3.2-0.9-6-2.6-8.4-5.1c-2.4-2.5-3.5-6-3.5-10.5c0-3.7,1.1-7,3.3-9.9c2.2-2.9,5.4-5.2,9.7-6.8c4.2-1.7,9.3-2.5,15.2-2.5
			c4.2,0,8.4,0.4,12.5,1.3c4.1,0.9,7.6,2.1,10.4,3.6l-6.1,13.8c-5.1-2.9-10.7-4.3-16.7-4.3c-3.2,0-5.6,0.4-7.1,1.1
			c-1.5,0.7-2.2,1.7-2.2,2.9c0,1.4,0.8,2.3,2.5,2.8c1.6,0.5,4.3,1.1,8.1,1.7c4.8,0.7,8.7,1.5,11.9,2.5c3.1,0.9,5.9,2.6,8.2,5.1
			c2.3,2.5,3.5,5.9,3.5,10.3c0,3.6-1.1,6.9-3.3,9.8c-2.2,2.9-5.5,5.2-9.8,6.8c-4.3,1.6-9.5,2.5-15.6,2.5
			C509.8,654.1,505.1,653.5,500.4,652.4z"/>
		<path class="st1" d="M600.7,649.6c-6.3-3.4-11.3-8-14.9-13.9c-3.6-5.9-5.4-12.6-5.4-20c0-7.4,1.8-14.1,5.4-20
			c3.6-5.9,8.6-10.6,14.9-13.9c6.3-3.4,13.4-5,21.3-5s15,1.7,21.3,5c6.3,3.4,11.3,8,14.9,13.9c3.6,5.9,5.4,12.6,5.4,20
			c0,7.4-1.8,14.1-5.4,20c-3.6,5.9-8.6,10.6-14.9,13.9c-6.3,3.4-13.4,5-21.3,5S607,653,600.7,649.6z M632.3,634.4
			c3.1-1.8,5.5-4.3,7.3-7.5c1.8-3.2,2.7-7,2.7-11.2c0-4.2-0.9-7.9-2.7-11.2c-1.8-3.2-4.2-5.8-7.3-7.5c-3.1-1.8-6.5-2.7-10.3-2.7
			c-3.8,0-7.2,0.9-10.3,2.7c-3.1,1.8-5.5,4.3-7.3,7.5c-1.8,3.2-2.7,7-2.7,11.2c0,4.2,0.9,7.9,2.7,11.2c1.8,3.2,4.2,5.8,7.3,7.5
			c3.1,1.8,6.5,2.7,10.3,2.7C625.8,637.1,629.2,636.2,632.3,634.4z"/>
		<path class="st1" d="M696,597.3h13.8v15.2h-13.3v40.7h-20.3v-40.7h-8.5v-15.2h8.5v-1.5c0-7.1,2.1-12.7,6.4-16.8
			c4.2-4.1,10.2-6.2,17.8-6.2c2.6,0,5.1,0.3,7.5,0.7c2.4,0.5,4.4,1.2,6,2.2l-5,14.3c-2-1.1-4-1.7-6.1-1.7c-2.1,0-3.8,0.6-5,1.9
			c-1.2,1.3-1.8,3.2-1.8,5.7V597.3z"/>
		<path class="st1" d="M741.5,597.3h13.8v15.2h-13.3v40.7h-20.3v-40.7h-8.5v-15.2h8.5v-1.5c0-7.1,2.1-12.7,6.4-16.8
			c4.2-4.1,10.2-6.2,17.8-6.2c2.6,0,5.1,0.3,7.5,0.7c2.4,0.5,4.4,1.2,6,2.2l-5,14.3c-2-1.1-4-1.7-6.1-1.7c-2.1,0-3.8,0.6-5,1.9
			c-1.2,1.3-1.8,3.2-1.8,5.7V597.3z"/>
		<path class="st1" d="M823.3,629.3h-42.2c0.9,3,2.5,5.3,5,6.9c2.5,1.6,5.5,2.4,9.3,2.4c2.8,0,5.2-0.4,7.2-1.2
			c2-0.8,4.1-2.1,6.2-3.9l10.7,11.1c-5.6,6.3-13.9,9.4-24.7,9.4c-6.8,0-12.7-1.3-17.9-3.9c-5.1-2.6-9.1-6.1-11.9-10.7
			c-2.8-4.6-4.2-9.7-4.2-15.5c0-5.7,1.4-10.8,4.1-15.4c2.7-4.5,6.5-8.1,11.4-10.6c4.8-2.6,10.3-3.9,16.4-3.9c5.8,0,11,1.2,15.7,3.6
			c4.7,2.4,8.4,5.8,11.2,10.4c2.7,4.5,4.1,9.9,4.1,16.1C823.6,624.4,823.5,626.1,823.3,629.3z M784.8,611.3c-2.1,1.8-3.4,4.2-4,7.3
			h23.8c-0.6-3.1-1.9-5.5-4-7.3c-2.1-1.8-4.7-2.7-7.9-2.7C789.5,608.6,786.9,609.5,784.8,611.3z"/>
		<path class="st1" d="M860.5,596.2c3.3-1.3,7.1-2,11.4-2v18.3c-1.9-0.2-3.4-0.3-4.6-0.3c-4.4,0-7.8,1.2-10.2,3.5
			c-2.5,2.4-3.7,6-3.7,10.8v26.6H833v-58h19.4v7C854.5,599.5,857.1,597.5,860.5,596.2z"/>
		<path class="st1" d="M938.6,629.3h-42.2c0.9,3,2.5,5.3,5,6.9c2.5,1.6,5.5,2.4,9.3,2.4c2.8,0,5.2-0.4,7.2-1.2
			c2-0.8,4.1-2.1,6.2-3.9l10.7,11.1c-5.6,6.3-13.9,9.4-24.7,9.4c-6.8,0-12.7-1.3-17.9-3.9c-5.1-2.6-9.1-6.1-11.9-10.7
			c-2.8-4.6-4.2-9.7-4.2-15.5c0-5.7,1.4-10.8,4.1-15.4c2.7-4.5,6.5-8.1,11.4-10.6c4.8-2.6,10.3-3.9,16.4-3.9c5.8,0,11,1.2,15.7,3.6
			c4.7,2.4,8.4,5.8,11.2,10.4c2.7,4.5,4.1,9.9,4.1,16.1C938.9,624.4,938.8,626.1,938.6,629.3z M900.2,611.3c-2.1,1.8-3.4,4.2-4,7.3
			h23.8c-0.6-3.1-1.9-5.5-4-7.3c-2.1-1.8-4.7-2.7-7.9-2.7C904.9,608.6,902.3,609.5,900.2,611.3z"/>
		<path class="st1" d="M1010,573.7v79.4h-19.4v-5.8c-3.8,4.5-9.5,6.7-17,6.7c-5.3,0-10.1-1.2-14.4-3.7c-4.4-2.5-7.8-6-10.3-10.5
			c-2.5-4.6-3.8-9.8-3.8-15.8c0-6,1.3-11.3,3.8-15.8c2.5-4.5,6-8,10.3-10.4c4.4-2.4,9.2-3.6,14.4-3.6c6.9,0,12.3,2,16,6v-26.4H1010z
			 M986.6,634.3c2.3-2.5,3.4-5.9,3.4-10.2c0-4.3-1.1-7.6-3.4-10.1c-2.2-2.4-5.2-3.6-8.7-3.6c-3.6,0-6.5,1.2-8.8,3.6
			c-2.3,2.4-3.4,5.8-3.4,10.1c0,4.4,1.1,7.8,3.4,10.2c2.3,2.5,5.2,3.7,8.8,3.7C981.4,637.9,984.3,636.7,986.6,634.3z"/>
	</g>
</g>
</svg>
